<svg width="20" height="20" viewBox="0 0 20 20" fill="none" xmlns="http://www.w3.org/2000/svg">
<path d="M13.4541 2.00175C13.4541 2.85508 13.0875 3.70841 12.5691 4.32341C12.0191 5.00508 11.0675 5.51175 10.3108 5.51175C10.2241 5.51175 10.1375 5.50008 10.0841 5.49008C10.0644 5.3907 10.0538 5.28972 10.0525 5.18841C10.0525 4.32341 10.4958 3.47008 10.9708 2.93008C11.5758 2.22841 12.5791 1.69841 13.4225 1.66675C13.4441 1.76341 13.4541 1.88341 13.4541 2.00175ZM16.4283 7.37675L16.47 7.34925C15.3458 5.73841 13.6391 5.69508 13.1641 5.69508C12.4375 5.69508 11.7866 5.95341 11.24 6.17008C10.8441 6.32675 10.5025 6.46175 10.2258 6.46175C9.91998 6.46175 9.56998 6.32008 9.17915 6.16341C8.68581 5.96341 8.12915 5.73841 7.51415 5.73841C5.43998 5.73841 3.33331 7.45841 3.33331 10.6976C3.33331 12.7176 4.11165 14.8467 5.07498 16.2167C5.90665 17.3834 6.62998 18.3334 7.66665 18.3334C8.15831 18.3334 8.51915 18.1809 8.89831 18.0201C9.31831 17.8417 9.76165 17.6534 10.4316 17.6534C11.11 17.6534 11.515 17.8301 11.905 18.0001C12.2691 18.1584 12.6191 18.3117 13.1658 18.3117C14.2991 18.3117 15.0441 17.2867 15.7575 16.2601C16.5575 15.0934 16.8933 13.9484 16.9033 13.8951C16.8383 13.8734 14.6658 12.9976 14.6658 10.5242C14.6658 8.53258 16.1466 7.56175 16.4283 7.37675Z" fill="black"/>
</svg>
