<svg width="75" height="75" viewBox="0 0 75 75" fill="none" xmlns="http://www.w3.org/2000/svg">
<path fill-rule="evenodd" clip-rule="evenodd" d="M60.3952 41.3672H13.9373V62.8679C13.9371 63.3675 14.0981 63.8538 14.3962 64.2547C14.6944 64.6556 15.1138 64.9496 15.5923 65.0933L36.4984 71.3651C36.9341 71.4952 37.3984 71.4952 37.8341 71.3651L58.7402 65.0933C59.2187 64.9496 59.6381 64.6556 59.9362 64.2547C60.2344 63.8538 60.3953 63.3675 60.3952 62.8679V41.3672Z" fill="url(#paint0_linear_228_23253)"/>
<path fill-rule="evenodd" clip-rule="evenodd" d="M60.3953 41.3672H37.1663C37.1663 41.3672 36.941 71.4627 37.1663 71.4627C37.3916 71.4627 37.6158 71.4301 37.8341 71.3651L58.7402 65.0933C59.2187 64.9496 59.6382 64.6556 59.9363 64.2547C60.2344 63.8538 60.3954 63.3675 60.3953 62.8679V41.3672Z" fill="url(#paint1_linear_228_23253)"/>
<path fill-rule="evenodd" clip-rule="evenodd" d="M37.1664 48.9038L13.9374 41.3672L8.04305 50.1059C7.94229 50.2551 7.87757 50.4256 7.854 50.604C7.83043 50.7824 7.84864 50.9639 7.90721 51.1341C7.96578 51.3043 8.06309 51.4585 8.19148 51.5846C8.31986 51.7108 8.47581 51.8053 8.647 51.8609L29.5473 58.6507C29.7868 58.7286 30.045 58.7265 30.2832 58.6448C30.5214 58.5631 30.7266 58.4062 30.8678 58.1978L37.1664 48.9038Z" fill="url(#paint2_linear_228_23253)"/>
<path fill-rule="evenodd" clip-rule="evenodd" d="M60.3955 41.3672L37.1665 48.9038L43.465 58.1978C43.6063 58.4062 43.8115 58.5631 44.0497 58.6448C44.2879 58.7265 44.5461 58.7286 44.7856 58.6507L65.6859 51.8609C65.8571 51.8053 66.013 51.7108 66.1414 51.5846C66.2698 51.4585 66.3671 51.3043 66.4257 51.1341C66.4843 50.9639 66.5025 50.7824 66.4789 50.604C66.4553 50.4256 66.3906 50.2551 66.2899 50.1059L60.3955 41.3672Z" fill="url(#paint3_linear_228_23253)"/>
<path fill-rule="evenodd" clip-rule="evenodd" d="M31.5441 25.5357C31.4026 25.3279 31.1974 25.1717 30.9595 25.0904C30.7216 25.0092 30.4637 25.0073 30.2247 25.0851L9.32323 31.8761C9.15191 31.9313 8.9958 32.0256 8.86727 32.1516C8.73873 32.2776 8.6413 32.4318 8.5827 32.602C8.52409 32.7721 8.50592 32.9536 8.52963 33.132C8.55333 33.3105 8.61826 33.4809 8.71927 33.6299L13.9377 41.3675L37.1667 33.8053L31.5441 25.5357Z" fill="url(#paint4_linear_228_23253)"/>
<path fill-rule="evenodd" clip-rule="evenodd" d="M65.6139 33.6299C65.7144 33.4808 65.7789 33.3104 65.8024 33.1321C65.8258 32.9538 65.8076 32.7725 65.749 32.6025C65.6904 32.4324 65.5932 32.2783 65.465 32.1523C65.3367 32.0262 65.1809 31.9317 65.0099 31.8761L44.1085 25.0851C43.8694 25.0073 43.6116 25.0092 43.3736 25.0904C43.1357 25.1717 42.9306 25.3279 42.7891 25.5357L37.1665 33.8053L60.3955 41.3675L65.6139 33.6299Z" fill="url(#paint5_linear_228_23253)"/>
<path fill-rule="evenodd" clip-rule="evenodd" d="M60.3952 41.3674L37.1662 33.8052L13.9373 41.3674L37.1662 48.904L60.3952 41.3674Z" fill="url(#paint6_linear_228_23253)"/>
<path fill-rule="evenodd" clip-rule="evenodd" d="M37.1662 48.904V33.8052L13.9373 41.3674L37.1662 48.904Z" fill="url(#paint7_linear_228_23253)"/>
<path fill-rule="evenodd" clip-rule="evenodd" d="M32.4995 37.1407C32.0378 36.8406 31.6012 36.5034 31.194 36.1326C30.9658 35.9331 30.6686 35.8308 30.3659 35.8474C30.0632 35.8641 29.779 35.9984 29.5741 36.2217C29.3691 36.4451 29.2595 36.7397 29.2688 37.0427C29.2781 37.3457 29.4055 37.6331 29.6238 37.8434C30.0988 38.2801 30.6342 38.6959 31.2289 39.085C31.4867 39.2481 31.7983 39.3031 32.0964 39.2384C32.3944 39.1736 32.6551 38.9941 32.822 38.7388C32.9888 38.4834 33.0485 38.1727 32.9882 37.8737C32.9279 37.5747 32.7523 37.3114 32.4995 37.1407ZM28.8804 33.5728C28.5504 33.128 28.2575 32.6568 28.0047 32.1639C27.865 31.8893 27.6219 31.6814 27.329 31.586C27.036 31.4906 26.7172 31.5155 26.4426 31.6552C26.1679 31.7949 25.9601 32.038 25.8647 32.3309C25.7693 32.6239 25.7941 32.9427 25.9338 33.2174C26.2288 33.7958 26.5866 34.3753 27.0105 34.9502C27.1954 35.192 27.4679 35.3515 27.7693 35.3945C28.0706 35.4374 28.3768 35.3603 28.6219 35.1797C28.867 34.9992 29.0314 34.7297 29.0797 34.4291C29.1281 34.1286 29.0565 33.8211 28.8804 33.5728ZM27.1824 28.8329C27.194 28.3648 27.2625 27.9107 27.388 27.4752C27.43 27.3285 27.4427 27.175 27.4254 27.0234C27.4081 26.8719 27.3611 26.7252 27.2871 26.5918C27.2132 26.4584 27.1136 26.3408 26.9942 26.2459C26.8748 26.151 26.7379 26.0805 26.5912 26.0384C26.4446 25.9964 26.2911 25.9837 26.1395 26.001C25.9879 26.0183 25.8413 26.0653 25.7078 26.1393C25.5744 26.2133 25.4569 26.3128 25.362 26.4322C25.267 26.5516 25.1965 26.6885 25.1545 26.8352C24.9749 27.4667 24.8757 28.1184 24.8595 28.7748C24.8518 29.0829 24.9668 29.3813 25.1791 29.6046C25.3915 29.8279 25.6839 29.9576 25.9919 29.9653C26.2999 29.973 26.5984 29.858 26.8217 29.6457C27.0449 29.4333 27.1747 29.1409 27.1824 28.8329ZM28.9687 24.9537C29.2672 24.6772 29.6017 24.4217 29.9675 24.1906C30.0966 24.1092 30.2083 24.0032 30.2964 23.8787C30.3845 23.7541 30.4472 23.6134 30.4809 23.4646C30.5146 23.3159 30.5186 23.1619 30.4928 23.0115C30.467 22.8612 30.4119 22.7174 30.3305 22.5884C30.2491 22.4593 30.1431 22.3476 30.0186 22.2595C29.894 22.1714 29.7533 22.1088 29.6046 22.0751C29.4558 22.0413 29.3018 22.0373 29.1515 22.0631C29.0011 22.0889 28.8573 22.144 28.7283 22.2254C28.2516 22.5249 27.8037 22.8678 27.3903 23.2498C27.17 23.4605 27.0414 23.7494 27.0322 24.054C27.0231 24.3587 27.134 24.6548 27.3411 24.8784C27.5483 25.102 27.835 25.2352 28.1395 25.2493C28.444 25.2634 28.7418 25.1572 28.9687 24.9537ZM33.2881 22.9502C33.9012 22.8382 34.5214 22.7699 35.1441 22.7457C35.4446 22.7225 35.7244 22.5836 35.9244 22.3581C36.1244 22.1326 36.229 21.8383 36.2162 21.5372C36.2034 21.2361 36.0742 20.9517 35.8558 20.744C35.6373 20.5363 35.3468 20.4216 35.0454 20.424C34.2788 20.4565 33.5518 20.539 32.8654 20.6656C32.5624 20.7216 32.2941 20.8958 32.1196 21.1496C31.945 21.4035 31.8784 21.7163 31.9345 22.0192C31.9905 22.3222 32.1646 22.5905 32.4185 22.7651C32.6724 22.9396 32.9852 23.0062 33.2881 22.9502ZM39.3416 22.8816C40.3323 22.8932 41.2545 22.8584 42.1105 22.7829C42.4145 22.7521 42.6941 22.6028 42.8888 22.3672C43.0834 22.1317 43.1774 21.8289 43.1504 21.5246C43.1233 21.2202 42.9774 20.9388 42.7443 20.7412C42.5112 20.5437 42.2096 20.446 41.9049 20.4693C41.121 20.5378 40.2766 20.5703 39.3683 20.5587C39.0603 20.5552 38.7635 20.6742 38.5431 20.8895C38.3228 21.1048 38.1971 21.3988 38.1935 21.7068C38.19 22.0149 38.3089 22.3117 38.5243 22.532C38.7396 22.7523 39.0336 22.8781 39.3416 22.8816ZM45.9282 22.0709C47.078 21.719 48.049 21.2684 48.862 20.7515C48.9907 20.6695 49.1019 20.563 49.1894 20.4381C49.2769 20.3131 49.3389 20.1721 49.3719 20.0232C49.4049 19.8742 49.4082 19.7202 49.3817 19.57C49.3552 19.4198 49.2994 19.2762 49.2174 19.1476C49.1354 19.0189 49.0289 18.9077 48.9039 18.8202C48.779 18.7327 48.638 18.6707 48.489 18.6377C48.3401 18.6047 48.1861 18.6013 48.0359 18.6278C47.8856 18.6543 47.7421 18.7102 47.6134 18.7922C46.8763 19.2492 46.0809 19.6047 45.2487 19.8491C44.9541 19.9392 44.7073 20.1426 44.5627 20.4147C44.4181 20.6867 44.3874 21.0051 44.4775 21.2997C44.5676 21.5944 44.7711 21.8411 45.0431 21.9858C45.3152 22.1304 45.6336 22.161 45.9282 22.0709ZM51.84 17.5006C52.3626 16.4151 52.6049 15.216 52.545 14.0128C52.5379 13.8604 52.5008 13.7109 52.436 13.5729C52.3711 13.4348 52.2797 13.3109 52.1669 13.2082C52.0542 13.1054 51.9223 13.0259 51.7788 12.9742C51.6353 12.9224 51.483 12.8994 51.3307 12.9065C51.1783 12.9136 51.0288 12.9506 50.8908 13.0155C50.7527 13.0804 50.6288 13.1718 50.526 13.2845C50.4233 13.3973 50.3438 13.5292 50.292 13.6727C50.2403 13.8162 50.2173 13.9684 50.2244 14.1208C50.2662 14.938 50.1024 15.7526 49.7482 16.4902C49.6297 16.7654 49.6219 17.0757 49.7267 17.3564C49.8314 17.6372 50.0405 17.8666 50.3103 17.997C50.5801 18.1273 50.8898 18.1484 51.1748 18.056C51.4598 17.9635 51.6981 17.7645 51.84 17.5006ZM51.1001 9.90591C50.2534 8.76188 49.1048 7.96513 47.8527 7.70845C47.5556 7.65815 47.2505 7.72521 47.0018 7.89548C46.7532 8.06575 46.5803 8.32593 46.5198 8.62116C46.4592 8.91639 46.5157 9.2236 46.6772 9.47801C46.8388 9.73243 47.0928 9.91416 47.3858 9.98489C48.1082 10.1324 48.7447 10.6283 49.2337 11.2892C49.3245 11.4118 49.4386 11.5152 49.5694 11.5937C49.7002 11.6721 49.8452 11.7241 49.9961 11.7465C50.147 11.7689 50.3008 11.7614 50.4488 11.7244C50.5967 11.6874 50.736 11.6216 50.8585 11.5308C50.9811 11.44 51.0846 11.3259 51.163 11.1951C51.2415 11.0642 51.2934 10.9193 51.3159 10.7684C51.3383 10.6175 51.3308 10.4637 51.2938 10.3157C51.2568 10.1677 51.191 10.0285 51.1001 9.90591Z" fill="black"/>
<path fill-rule="evenodd" clip-rule="evenodd" d="M35.9272 7.93394C37.1839 0.817736 48.0748 1.27767 41.7345 7.93394H35.9272Z" fill="url(#paint8_linear_228_23253)"/>
<path fill-rule="evenodd" clip-rule="evenodd" d="M35.9272 9.73633C37.1839 16.8514 48.0748 16.3926 41.7345 9.73633H35.9272Z" fill="url(#paint9_linear_228_23253)"/>
<path fill-rule="evenodd" clip-rule="evenodd" d="M35.8226 10.0082H43.5996C43.9077 10.0082 44.2031 9.88584 44.4209 9.66802C44.6387 9.45021 44.7611 9.15479 44.7611 8.84675C44.7611 8.53872 44.6387 8.2433 44.4209 8.02548C44.2031 7.80767 43.9077 7.6853 43.5996 7.6853H35.8226C35.5235 7.69868 35.2412 7.82689 35.0343 8.04324C34.8274 8.25959 34.7119 8.5474 34.7119 8.84675C34.7119 9.1461 34.8274 9.43391 35.0343 9.65026C35.2412 9.86661 35.5235 9.99482 35.8226 10.0082Z" fill="url(#paint10_linear_228_23253)"/>
<defs>
<linearGradient id="paint0_linear_228_23253" x1="13.9373" y1="56.4149" x2="60.3952" y2="56.4149" gradientUnits="userSpaceOnUse">
<stop stop-color="#CADCF0"/>
<stop offset="1" stop-color="#A4BBDB"/>
</linearGradient>
<linearGradient id="paint1_linear_228_23253" x1="37.0664" y1="56.4149" x2="60.3953" y2="56.4149" gradientUnits="userSpaceOnUse">
<stop stop-color="#A4BBDB"/>
<stop offset="1" stop-color="#8DA3BE"/>
</linearGradient>
<linearGradient id="paint2_linear_228_23253" x1="14.0919" y1="41.3579" x2="17.3384" y2="62.837" gradientUnits="userSpaceOnUse">
<stop stop-color="#E9F3FC"/>
<stop offset="1" stop-color="#CADCF0"/>
</linearGradient>
<linearGradient id="paint3_linear_228_23253" x1="37.2606" y1="48.8249" x2="61.7482" y2="62.9085" gradientUnits="userSpaceOnUse">
<stop stop-color="#E9F3FC"/>
<stop offset="1" stop-color="#CADCF0"/>
</linearGradient>
<linearGradient id="paint4_linear_228_23253" x1="10.897" y1="36.8599" x2="14.4011" y2="20.3414" gradientUnits="userSpaceOnUse">
<stop stop-color="#E9F3FC"/>
<stop offset="1" stop-color="#CADCF0"/>
</linearGradient>
<linearGradient id="paint5_linear_228_23253" x1="43.3849" y1="24.8052" x2="44.6379" y2="45.1941" gradientUnits="userSpaceOnUse">
<stop stop-color="#E9F3FC"/>
<stop offset="1" stop-color="#CADCF0"/>
</linearGradient>
<linearGradient id="paint6_linear_228_23253" x1="13.9373" y1="41.3546" x2="60.3952" y2="41.3546" gradientUnits="userSpaceOnUse">
<stop stop-color="#CADCF0"/>
<stop offset="1" stop-color="#A4BBDB"/>
</linearGradient>
<linearGradient id="paint7_linear_228_23253" x1="39.5553" y1="33.4708" x2="40.0558" y2="52.232" gradientUnits="userSpaceOnUse">
<stop stop-color="#A4BBDB"/>
<stop offset="1" stop-color="#8DA3BE"/>
</linearGradient>
<linearGradient id="paint8_linear_228_23253" x1="35.9272" y1="5.35087" x2="43.7031" y2="5.35087" gradientUnits="userSpaceOnUse">
<stop stop-color="#E9F3FC"/>
<stop offset="1" stop-color="#CADCF0"/>
</linearGradient>
<linearGradient id="paint9_linear_228_23253" x1="35.9272" y1="12.3194" x2="43.7031" y2="12.3194" gradientUnits="userSpaceOnUse">
<stop stop-color="#E9F3FC"/>
<stop offset="1" stop-color="#CADCF0"/>
</linearGradient>
<linearGradient id="paint10_linear_228_23253" x1="24.38" y1="7.93366" x2="47.2883" y2="34.9644" gradientUnits="userSpaceOnUse">
<stop stop-color="#559AFF"/>
<stop offset="1" stop-color="#2E69EF"/>
</linearGradient>
</defs>
</svg>
