<svg width="26" height="27" viewBox="0 0 26 27" fill="none" xmlns="http://www.w3.org/2000/svg">
<path d="M21.9315 9.1521C24.069 9.1521 25.8018 10.9083 25.8018 13.0747C25.8018 15.241 24.069 16.9972 21.9315 16.9972L3.87027 16.9972C1.73278 16.9972 -9.34326e-08 15.241 0 13.0747C9.34326e-08 10.9083 1.73278 9.1521 3.87027 9.1521L21.9315 9.1521Z" fill="#94CFFF"/>
<path d="M9.03079 3.92257C9.03079 1.75619 10.7636 0 12.9011 0C15.0385 0 16.7713 1.75619 16.7713 3.92257V22.2279C16.7713 24.3943 15.0385 26.1504 12.9011 26.1504C10.7636 26.1504 9.03079 24.3943 9.03079 22.2279V3.92257Z" fill="#418CFF"/>
<path d="M9.03079 3.92257C9.03079 1.75619 10.7636 0 12.9011 0C15.0385 0 16.7713 1.75619 16.7713 3.92257V22.2279C16.7713 24.3943 15.0385 26.1504 12.9011 26.1504C10.7636 26.1504 9.03079 24.3943 9.03079 22.2279V3.92257Z" fill="#7094F4" style="mix-blend-mode:screen"/>
<path d="M16.5508 3.82932C18.0623 2.29772 20.5131 2.29751 22.0244 3.82932C23.5358 5.36117 23.5357 7.84527 22.0244 9.37717L18.375 13.0754L22.0244 16.7737C23.5358 18.3055 23.5358 20.7896 22.0244 22.3215C20.5131 23.8533 18.0623 23.8532 16.5508 22.3215L12.9014 18.6223L9.25199 22.3215C7.74048 23.8531 5.28974 23.8533 3.77836 22.3215C2.26708 20.7896 2.26708 18.3055 3.77836 16.7737L7.42679 13.0754L3.77836 9.37717C2.26711 7.84528 2.26704 5.36116 3.77836 3.82932C5.28973 2.29752 7.74048 2.29775 9.25199 3.82932L12.9014 7.52756L16.5508 3.82932Z" fill="url(#paint0_linear_231_12399)"/>
<path fill-rule="evenodd" clip-rule="evenodd" d="M12.901 6.82533C12.616 6.82533 12.385 7.05949 12.385 7.34834V11.3076C12.385 11.466 12.385 11.5452 12.3541 11.5819C12.3273 11.6137 12.287 11.6306 12.2459 11.6273C12.1984 11.6235 12.1432 11.5675 12.0326 11.4555L7.24522 6.60338C7.04369 6.39913 6.71696 6.39913 6.51543 6.60338C6.31391 6.80763 6.31391 7.13878 6.51543 7.34303L11.3029 12.1951C11.4134 12.3072 11.4686 12.3632 11.4724 12.4113C11.4756 12.453 11.459 12.4938 11.4276 12.5209C11.3914 12.5523 11.3132 12.5523 11.1569 12.5523H7.28916C7.00416 12.5523 6.77312 12.7864 6.77312 13.0753C6.77312 13.3641 7.00416 13.5983 7.28916 13.5983H11.1569C11.3132 13.5983 11.3914 13.5983 11.4276 13.6296C11.459 13.6568 11.4756 13.6976 11.4724 13.7393C11.4686 13.7874 11.4134 13.8434 11.3029 13.9554L6.51543 18.8075C6.31391 19.0118 6.31391 19.3429 6.51543 19.5472C6.71696 19.7514 7.04369 19.7514 7.24522 19.5472L12.0326 14.6951C12.1432 14.5831 12.1984 14.527 12.2459 14.5233C12.287 14.52 12.3273 14.5369 12.3541 14.5687C12.385 14.6054 12.385 14.6846 12.385 14.843V18.8022C12.385 19.0911 12.616 19.3252 12.901 19.3252C13.186 19.3252 13.4171 19.0911 13.4171 18.8022V14.843C13.4171 14.6846 13.4171 14.6054 13.448 14.5687C13.4748 14.5369 13.515 14.52 13.5562 14.5233C13.6037 14.527 13.6589 14.5831 13.7695 14.6951L18.5569 19.5472C18.7584 19.7514 19.0851 19.7514 19.2867 19.5472C19.4882 19.3429 19.4882 19.0118 19.2867 18.8075L14.4992 13.9554C14.3887 13.8434 14.3334 13.7874 14.3297 13.7393C14.3265 13.6976 14.3431 13.6568 14.3745 13.6296C14.4107 13.5983 14.4889 13.5983 14.6452 13.5983H18.5129C18.7979 13.5983 19.029 13.3641 19.029 13.0753C19.029 12.7864 18.7979 12.5523 18.5129 12.5523H14.6452C14.4889 12.5523 14.4107 12.5523 14.3745 12.521C14.3431 12.4938 14.3265 12.453 14.3297 12.4113C14.3334 12.3632 14.3887 12.3072 14.4992 12.1951L19.2867 7.34303C19.4882 7.13878 19.4882 6.80763 19.2867 6.60338C19.0851 6.39913 18.7584 6.39913 18.5569 6.60338L13.7695 11.4555C13.6589 11.5675 13.6037 11.6235 13.5562 11.6273C13.515 11.6306 13.4748 11.6137 13.448 11.5819C13.4171 11.5452 13.4171 11.466 13.4171 11.3076V7.34834C13.4171 7.05949 13.186 6.82533 12.901 6.82533Z" fill="#F3F4F7"/>
<defs>
<linearGradient id="paint0_linear_231_12399" x1="12.9014" y1="-5.82436" x2="12.9014" y2="20.8716" gradientUnits="userSpaceOnUse">
<stop stop-color="#335CFF"/>
<stop offset="1" stop-color="#2E51DC"/>
</linearGradient>
</defs>
</svg>
