<svg width="15" height="15" viewBox="0 0 15 15" fill="none" xmlns="http://www.w3.org/2000/svg">
<path fill-rule="evenodd" clip-rule="evenodd" d="M7.49666 13.7438C10.2568 13.7438 12.4944 11.5062 12.4944 8.74605C12.4944 5.98586 10.2568 3.74829 7.49666 3.74829C4.73647 3.74829 2.4989 5.98586 2.4989 8.74605C2.4989 11.5062 4.73647 13.7438 7.49666 13.7438ZM7.49666 6.87189C7.3192 6.87189 7.20051 7.08482 6.96312 7.51067L6.9017 7.62085C6.83424 7.74186 6.80051 7.80237 6.74792 7.84229C6.69533 7.88222 6.62983 7.89704 6.49884 7.92668L6.37957 7.95366C5.91859 8.05796 5.6881 8.11011 5.63326 8.28645C5.57842 8.4628 5.73556 8.64654 6.04983 9.01404L6.13113 9.10911C6.22044 9.21354 6.26509 9.26576 6.28518 9.33036C6.30526 9.39496 6.29851 9.46462 6.28501 9.60395L6.27272 9.73081C6.22521 10.2211 6.20145 10.4663 6.34502 10.5753C6.48858 10.6843 6.70439 10.5849 7.13601 10.3862L7.24767 10.3347C7.37033 10.2783 7.43165 10.25 7.49666 10.25C7.56167 10.25 7.62299 10.2783 7.74564 10.3347L7.85731 10.3862C8.28893 10.5849 8.50474 10.6843 8.6483 10.5753C8.79187 10.4663 8.76811 10.2211 8.7206 9.73081L8.70831 9.60395C8.69481 9.46463 8.68805 9.39495 8.70814 9.33036C8.72823 9.26576 8.77288 9.21355 8.86218 9.10912L8.94349 9.01404C9.25776 8.64655 9.41489 8.4628 9.36006 8.28645C9.30522 8.11011 9.07473 8.05796 8.61374 7.95366L8.49448 7.92668C8.36349 7.89704 8.29799 7.88222 8.2454 7.84229C8.19281 7.80237 8.15908 7.74186 8.09162 7.62085L8.0302 7.51067C7.79281 7.08482 7.67412 6.87189 7.49666 6.87189Z" fill="#34C759"/>
<path d="M6.87192 1.24939H8.12136C9.29935 1.24939 9.88834 1.24939 10.2543 1.61534C10.6151 1.97613 10.6202 2.5537 10.6202 3.69874C9.71296 3.13606 8.64274 2.81119 7.49664 2.81119C6.35055 2.81119 5.28033 3.13606 4.37305 3.69874C4.37312 2.5537 4.37821 1.97613 4.739 1.61534C5.10495 1.24939 5.69394 1.24939 6.87192 1.24939Z" fill="#34C759"/>
</svg>
